<?xml version="1.0" encoding="UTF-8"?>
<svg width="46" height="46" viewBox="0 0 46 46" fill="none" xmlns="http://www.w3.org/2000/svg">
  <g>
    <path d="M45.09 23.47c0-1.56-.14-3.13-.44-4.65H23.5v8.8h12.13c-.52 2.8-2.1 5.17-4.48 6.77v5.62h7.25c4.25-3.92 6.69-9.7 6.69-16.54z" fill="#4285F4"/>
    <path d="M23.5 46c6.07 0 11.17-2.01 14.89-5.47l-7.25-5.62c-2.02 1.36-4.6 2.16-7.64 2.16-5.87 0-10.85-3.97-12.64-9.3H3.86v5.85C7.65 41.36 15.02 46 23.5 46z" fill="#34A853"/>
    <path d="M10.86 27.77A13.77 13.77 0 0 1 9.5 23c0-1.66.3-3.27.84-4.77v-5.85H3.86A22.98 22.98 0 0 0 0 23c0 3.8.92 7.39 2.54 10.62l8.32-5.85z" fill="#FBBC05"/>
    <path d="M23.5 9.18c3.3 0 6.25 1.13 8.57 3.36l6.42-6.42C34.67 2.01 29.57 0 23.5 0 15.02 0 7.65 4.64 3.86 11.38l8.32 5.85c1.79-5.33 6.77-9.3 12.64-9.3z" fill="#EA4335"/>
  </g>
</svg> 